<?xml version="1.0" standalone="no"?>
<!DOCTYPE svg PUBLIC "-//W3C//DTD SVG 20010904//EN"
 "http://www.w3.org/TR/2001/REC-SVG-20010904/DTD/svg10.dtd">
<svg version="1.0" xmlns="http://www.w3.org/2000/svg"
 width="500.000000pt" height="500.000000pt" viewBox="0 0 500.000000 500.000000"
 preserveAspectRatio="xMidYMid meet">
<metadata>
Created by potrace 1.14, written by Peter Selinger 2001-2017
</metadata>
<g transform="translate(0.000000,500.000000) scale(0.100000,-0.100000)"
fill="#000000" stroke="none">
<path d="M0 2500 l0 -2500 2500 0 2500 0 0 2500 0 2500 -2500 0 -2500 0 0
-2500z m3222 338 l3 -2013 543 -3 542 -2 0 -350 0 -350 -1600 0 -1600 0 0 350
0 350 585 0 585 0 0 1616 c0 1289 -3 1614 -12 1608 -7 -5 -260 -162 -561 -351
-302 -189 -552 -343 -558 -343 -5 0 -9 144 -9 364 l0 365 28 19 c15 11 281
184 591 386 l564 366 449 0 448 0 2 -2012z"/>
</g>
</svg>
